<svg width="256.000000" height="256.000000" viewBox="0 0 256 256" fill="none" xmlns="http://www.w3.org/2000/svg" xmlns:xlink="http://www.w3.org/1999/xlink">
	<desc>
			Created with Pixso.
	</desc>
	<defs>
		<clipPath id="clip2_4">
			<rect id="尺寸1" width="256.000000" height="256.000000" fill="white" fill-opacity="0"/>
		</clipPath>
	</defs>
	<g clip-path="url(#clip2_4)">
		<rect id="矩形 1" x="18.000000" y="22.000000" rx="13.000000" width="220.000000" height="170.000000" stroke="#2D3D52" stroke-opacity="1.000000" stroke-width="13.000000"/>
		<path id="THINK" d="M72.16 216.51L79.93 216.51L79.93 211.77L58.59 211.77L58.59 216.51L66.34 216.51L66.34 239L72.16 239L72.16 216.51ZM106.06 239L111.86 239L111.86 211.77L106.06 211.77L106.06 222.75L94.46 222.75L94.46 211.77L88.66 211.77L88.66 239L94.46 239L94.46 227.76L106.06 227.76L106.06 239ZM129.01 239L129.01 211.77L123.21 211.77L123.21 239L129.01 239ZM158.57 239L164.51 239L164.51 211.77L159 211.77L159 227.29Q159 230.07 159.18 231.05L159.09 231.05Q158.85 230.59 157.74 228.89L146.63 211.77L140.3 211.77L140.3 239L145.8 239L145.8 223.51Q145.8 220.57 145.64 219.17L145.73 219.17Q146.14 220.01 147.03 221.38L158.57 239ZM190.69 239L198.04 239L187.49 224.76L197.23 211.77L190.3 211.77L182.5 223.18Q182.11 223.79 181.72 224.63L181.64 224.63L181.64 211.77L175.84 211.77L175.84 239L181.64 239L181.64 225.67L181.72 225.67Q182.13 226.64 182.44 227.1L190.69 239Z" fill="#2D3D52" fill-opacity="1.000000" fill-rule="evenodd"/>
		<rect id="矩形 2" x="204.000000" y="220.000000" rx="5.000000" width="40.000000" height="10.000000" fill="#EF8C39" fill-opacity="1.000000"/>
		<rect id="矩形 3" x="12.000000" y="220.000000" rx="5.000000" width="40.000000" height="10.000000" fill="#EF8C39" fill-opacity="1.000000"/>
		<rect id="矩形 4" x="47.000000" y="44.349533" rx="10.000000" width="162.000000" height="20.000000" fill="#2D3D52" fill-opacity="1.000000"/>
		<rect id="矩形 5" x="47.000000" y="149.349579" rx="10.000000" width="162.000000" height="20.000000" fill="#2D3D52" fill-opacity="1.000000"/>
		<rect id="矩形 6" x="43.000000" y="156.349579" rx="10.000000" width="196.184479" height="20.000000" transform="rotate(-36.0127 43.000000 156.349579)" fill="#2D3D52" fill-opacity="1.000000"/>
	</g>
</svg>
